<svg xmlns="http://www.w3.org/2000/svg" version="1.1" xmlns:xlink="http://www.w3.org/1999/xlink" xmlns:svgjs="http://svgjs.dev/svgjs" width="1000" height="1000" viewBox="0 0 1000 1000"><rect width="1000" height="1000" fill="#ffffff"></rect><g transform="matrix(0.7,0,0,0.7,149.57576056244733,345.428902342053)"><svg viewBox="0 0 396 175" data-background-color="#ffffff" preserveAspectRatio="xMidYMid meet" height="441" width="1000" xmlns="http://www.w3.org/2000/svg" xmlns:xlink="http://www.w3.org/1999/xlink"><g id="tight-bounds" transform="matrix(1,0,0,1,0.23999831038693742,0.12533880835998445)"><svg viewBox="0 0 395.5199999999999 174.74932238328003" height="174.74932238328003" width="395.5199999999999"><g><svg viewBox="0 0 829.8529303749398 366.64704" height="174.74932238328003" width="395.5199999999999"><g transform="matrix(1,0,0,1,434.3329303749398,125.9810621686747)"><svg viewBox="0 0 395.52 114.68491566265061" height="114.68491566265061" width="395.52"><g><svg viewBox="0 0 395.52 114.68491566265061" height="114.68491566265061" width="395.52"><g><svg viewBox="0 0 395.52 114.68491566265061" height="114.68491566265061" width="395.52"><g transform="matrix(1,0,0,1,0,0)"><svg width="395.52" viewBox="2.0999999046325684 -35.5 124.48999786376953 36.099998474121094" height="114.68491566265061" data-palette-color="#010c80"><path d="M12.45 0.6L12.45 0.6Q8.95 0.6 5.75-1.4L5.75-1.4Q4.15-2.4 3.13-4.2 2.1-6 2.1-8.35L2.1-8.35Q2.1-12.8 5.05-15.6 8-18.4 12.15-18.85L12.15-18.85Q9.35-19.6 7.68-21.45 6-23.3 6-26.15L6-26.15Q6-30.45 9.38-32.98 12.75-35.5 17.1-35.5 21.45-35.5 24.35-33.65 27.25-31.8 27.25-28.65L27.25-28.65Q27.25-27.55 26.88-26.5 26.5-25.45 26.1-25L26.1-25 25.75-24.5Q24.15-24.5 22.23-25.05 20.3-25.6 19.4-26.45L19.4-26.45 20-31.6Q19.25-32.35 17.48-32.35 15.7-32.35 14.68-30.53 13.65-28.7 13.65-26.35 13.65-24 14.2-22.8 14.75-21.6 15.75-20.95L15.75-20.95Q17.3-19.95 19.4-19.55L19.4-19.55 19-16.8Q15.4-16.8 12.75-14.68 10.1-12.55 10.1-9.05L10.1-9.05Q10.1-6.85 11.53-5.43 12.95-4 15.2-4L15.2-4Q19.3-4 23.6-8.15L23.6-8.15 25.6-6.3Q19.8 0.6 12.45 0.6ZM47.35-9.8L47.35-9.8Q47.35-5 43.7-2.2 40.05 0.6 34.85 0.6L34.85 0.6Q31.35 0.6 29.07-1.18 26.8-2.95 26.55-4.2L26.55-4.2Q27.1-5.85 28.9-7.9 30.7-9.95 32.15-10.4L32.15-10.4Q34.7-8.75 36.9-3.05L36.9-3.05Q40.15-3.15 40.15-6.6L40.15-6.6Q40.15-8.5 38.62-11.28 37.1-14.05 35.3-16.48 33.5-18.9 31.97-21.93 30.45-24.95 30.45-27.3L30.45-27.3Q30.45-31.1 33.52-33.3 36.6-35.5 40.45-35.5 44.3-35.5 46.42-33.85 48.55-32.2 48.55-30.1 48.55-28 46.95-25.8 45.35-23.6 43.75-22.3L43.75-22.3 42.15-21Q42.75-20.2 43.6-18.95 44.45-17.7 45.9-14.7 47.35-11.7 47.35-9.8ZM43.52-26.2Q44.2-26.85 44.75-27.78 45.3-28.7 45.3-29.73 45.3-30.75 44.1-31.45 42.9-32.15 41.22-32.15 39.55-32.15 38.42-31.38 37.3-30.6 37.3-29.53 37.3-28.45 38.02-27.03 38.75-25.6 39.45-24.65L39.45-24.65 40.2-23.7Q40.7-23.95 41.77-24.75 42.85-25.55 43.52-26.2ZM88.42 0.6Q86.55 0.6 85.4-0.73 84.25-2.05 84.25-4.33 84.25-6.6 86.32-15.65 88.4-24.7 88.4-27.2 88.4-29.7 86.45-29.7L86.45-29.7Q83.75-29.7 80.5-27.3L80.5-27.3Q80.15-24.6 78.45-17.88 76.75-11.15 76.17-7.93 75.59-4.7 75.59-2.95 75.59-1.2 75.65-0.8L75.65-0.8Q73.7 0.2 68.7 0.2L68.7 0.2 67.75 0.2Q67.75-4 70.09-14.1L70.09-14.1Q72.5-24.4 72.5-27.05 72.5-29.7 70.65-29.7L70.65-29.7Q67.95-29.7 64.34-27.1L64.34-27.1Q63.8-24.35 62.3-18.15L62.3-18.15Q58.95-3.95 58.95-0.8L58.95-0.8Q57 0.2 52.05 0.2L52.05 0.2 51.1 0.2Q51.3-2.05 53.75-13.03 56.2-24 56.8-29.45L56.8-29.45Q56.8-30.25 56.27-31.38 55.75-32.5 55.2-33.2L55.2-33.2 54.7-33.9 54.85-34.65Q57.65-35.5 64.5-35.5L64.5-35.5Q65.15-34.3 65.15-32.45L65.15-32.45Q65.15-32.05 64.95-30.35L64.95-30.35Q70.7-35.5 75.25-35.5L75.25-35.5Q77.3-35.5 78.7-34.1 80.09-32.7 80.5-30.45L80.5-30.45Q86.45-35.5 90.59-35.5L90.59-35.5Q93.2-35.5 94.8-33.8 96.4-32.1 96.4-29.05 96.4-26 94.27-17.43 92.15-8.85 92.15-5.45L92.15-5.45Q92.15-4 92.65-4L92.65-4Q93.09-4 95.09-5L95.09-5 95.8-5.3 96.8-3.45Q94.65-1.6 92.47-0.5 90.3 0.6 88.42 0.6ZM60.25-19.25L60.3-19.5Q60.25-19.4 60.25-19.25L60.25-19.25ZM111.89-13.85L111.89-13.85Q110.54-13.85 109.84-13.9L109.84-13.9Q107.69-4.5 107.44-0.85L107.44-0.85Q105.29 0.2 100.89 0.2L100.89 0.2Q99.94 0.2 99.59 0.15L99.59 0.15Q99.94-2.8 102.59-14.68 105.24-26.55 105.24-29.65L105.24-29.65Q105.24-30.25 104.57-31.23 103.89-32.2 103.19-32.85L103.19-32.85 102.54-33.5 102.69-34.25Q111.09-35.5 116.29-35.5L116.29-35.5Q126.59-35.5 126.59-27.1L126.59-27.1Q126.59-21.5 122.89-17.68 119.19-13.85 111.89-13.85ZM110.59-17.2L111.09-17.2Q114.94-17.2 116.92-20.1 118.89-23 118.89-27.85L118.89-27.85Q118.89-29.85 118.14-31.13 117.39-32.4 115.94-32.4L115.94-32.4Q114.99-32.4 113.59-32.05L113.59-32.05Q112.79-26.8 110.59-17.2L110.59-17.2Z" opacity="1" transform="matrix(1,0,0,1,0,0)" fill="#010c80" class="undefined-text-0" data-fill-palette-color="primary" id="text-0"></path></svg></g></svg></g></svg></g></svg></g><g><svg viewBox="0 0 366.64704 366.64704" height="366.64704" width="366.64704"><g><svg viewBox="0 0 366.64704 366.64704" height="366.64704" width="366.64704"><g transform="matrix(1,0,0,1,96.90398390467489,125.83983865236897)"><svg viewBox="0 0 172.83907219065023 114.96736269526207" height="114.96736269526207" width="172.83907219065023"><g><svg version="1.0" xmlns="http://www.w3.org/2000/svg" xmlns:xlink="http://www.w3.org/1999/xlink" x="0" y="0" viewBox="0 0.00099945068359375 100 66.51699829101562" enable-background="new 0 0 100 66.518" xml:space="preserve" width="172.83907219065023" height="114.96736269526207" class="icon-a-0" data-fill-palette-color="accent" id="a-0"><path d="M88.523 33.871l0.049-0.759c0-2.585-0.707-3.855-2.776-3.855H70.368c0-1.688-0.144-3.571-1.837-5.312l-7.572-7.947c-0.939-0.946-1.17-0.99-1.877-1.416-0.757-0.417-3.959-1.682-4.848-2.06-0.896-0.337-1.409-0.424-1.93-0.38V9.973c0.521-0.932 1.127-0.889 1.174-3.897 0-3.348-2.16-6.075-6.065-6.075s-5.784 2.728-6.163 6.075h1.366v4.694c0 1.691 1.659 3.065 3.713 3.065v0.897l-4.235 7.101L38.1 25.499c-1.697 1.6-3.72 0.512-3.248-1.18L38.1 10.771c0.232-0.882-0.423-1.785-1.459-0.187l-7.949 12.187c-1.883 3.009-6.774 4.651-9.832 4.651h-3.903v6.406l0.283-0.05c2.292 0 4.481 0.463 6.493 1.282l-1.017 1.657c-1.665-0.619-3.458-0.974-5.337-0.974C6.891 35.745 0 42.648 0 51.131c0 8.485 6.891 15.386 15.379 15.387 8.491 0 15.382-6.901 15.382-15.386 0-4.537-1.983-8.609-5.115-11.429l0.993-1.61c3.664 3.194 6.006 7.867 6.006 13.04 0 3.666 1.736 7.481 7.244 7.481 5.454 0 9.828 0 16.225-0.097h11.631c2.614 4.764 7.674 8 13.488 8 8.46 0 15.32-6.85 15.372-15.29H100C100 43.465 95.249 36.783 88.523 33.871zM15.335 60.637c-5.246 0-9.508-4.264-9.508-9.506 0.001-5.239 4.262-9.499 9.508-9.499 0.759 0 1.494 0.099 2.202 0.268l-2.089 3.404c-0.038-0.001-0.075-0.006-0.113-0.006-3.224 0-5.837 2.615-5.838 5.833 0 3.218 2.614 5.839 5.838 5.839 3.217 0 5.832-2.621 5.832-5.839 0-1.057-0.286-2.047-0.779-2.902l2.073-3.361c1.473 1.674 2.374 3.863 2.374 6.264C24.835 56.373 20.578 60.637 15.335 60.637zM47.505 35.703l-9.782-3.958 12.041-6.907c1.366 2.123 2.351 3.111 4.324 4.273L47.505 35.703zM66.182 47.839c-0.138 0.744-0.99 0.618-0.99 0v-9.924h6.307c0.751 0 0.841 0.515 0.424 0.932C69.053 41.015 66.939 44.172 66.182 47.839zM81.232 60.637c-5.246 0-9.502-4.264-9.502-9.506 0-3.34 1.732-6.275 4.346-7.969l1.244 3.652c-1.178 1.068-1.924 2.604-1.924 4.316 0 3.218 2.617 5.839 5.836 5.839 3.217 0 5.828-2.621 5.828-5.839 0-2.913-2.141-5.324-4.932-5.757l-1.297-3.722c0.134-0.006 0.266-0.021 0.4-0.021 5.24 0 9.5 4.26 9.5 9.499C90.732 56.373 86.473 60.637 81.232 60.637z" fill="#77d4fc" data-fill-palette-color="accent"></path></svg></g></svg></g><path d="M46.394 137.849v0c-1.16 3.07-3.146 5.676-5.96 7.817v0c-1.408 1.074-3.069 1.761-4.984 2.062-1.921 0.299-3.912 0.059-5.972-0.72v0c-3.897-1.472-6.587-3.966-8.069-7.482-1.479-3.508-1.728-7.157-0.747-10.948v0c-1.581 2.207-3.463 3.737-5.645 4.59-2.176 0.856-4.513 0.813-7.011-0.131v0c-3.77-1.424-6.202-4.031-7.298-7.823-1.093-3.798-0.92-7.604 0.52-11.418 1.441-3.814 3.451-6.687 6.033-8.617 2.581-1.931 5.252-2.375 8.011-1.333v0c0.966 0.365 1.848 0.887 2.645 1.566 0.797 0.679 1.326 1.267 1.588 1.765v0l0.485 0.706c-0.531 1.405-1.357 2.862-2.478 4.371-1.119 1.502-2.2 2.507-3.242 3.014v0l-6.471-3.348c-0.911 0.411-1.66 1.396-2.249 2.953-0.588 1.557-0.251 3.087 1.013 4.588 1.257 1.499 2.919 2.639 4.985 3.419 2.06 0.778 3.705 1.123 4.937 1.036 1.235-0.078 2.302-0.449 3.198-1.112v0c1.391-1.029 2.613-2.398 3.665-4.108v0l3.416 1.89c-1.193 3.159-1.297 6.251-0.31 9.274 0.984 3.03 3.011 5.125 6.081 6.285v0c1.926 0.727 3.752 0.702 5.477-0.078 1.717-0.775 2.947-2.148 3.692-4.119v0c1.359-3.598 0.932-7.969-1.281-13.112v0l3.426-1.713c4.131 7.371 4.98 14.28 2.545 20.726zM120.717 40.967v0c2.085 3.986 2.222 7.937 0.411 11.85-1.819 3.911-4.888 6.996-9.205 9.254v0c-2.908 1.521-5.691 2.036-8.347 1.547-2.662-0.487-4.37-1.193-5.122-2.118v0c-0.26-1.612-0.089-3.661 0.513-6.146 0.611-2.482 1.422-4.225 2.43-5.228v0c2.828 0.262 6.395 2.28 10.701 6.056v0c2.657-1.489 3.236-3.667 1.737-6.533v0c-0.825-1.578-2.473-3.189-4.943-4.834-2.477-1.642-4.987-3.078-7.533-4.308-2.548-1.236-5.111-2.779-7.688-4.629-2.584-1.847-4.386-3.745-5.406-5.697v0c-1.653-3.161-1.68-6.322-0.081-9.482 1.605-3.163 4.006-5.58 7.204-7.252 3.198-1.672 6.036-2.286 8.515-1.841 2.482 0.45 4.178 1.546 5.088 3.285 0.913 1.746 1.181 3.88 0.805 6.401-0.374 2.526-0.941 4.675-1.702 6.445v0l-1.146 2.67c0.846 0.401 1.892 0.935 3.138 1.602 1.249 0.673 3.126 1.939 5.631 3.796 2.508 1.863 4.174 3.584 5 5.162zM105.273 23.024c0.28-0.829 0.447-1.748 0.501-2.758 0.049-1.007-0.149-1.935-0.593-2.784-0.444-0.849-1.315-1.306-2.614-1.37-1.302-0.055-2.648 0.281-4.04 1.008-1.391 0.727-2.385 1.657-2.981 2.789-0.6 1.126-0.665 2.138-0.196 3.036 0.466 0.891 1.31 1.773 2.533 2.643 1.219 0.865 2.327 1.54 3.324 2.024v0l1.549 0.696c0.308-0.422 0.733-1.2 1.275-2.334 0.551-1.132 0.965-2.115 1.242-2.95zM250.622 62.945c-1.659-0.588-2.79-1.649-3.392-3.182-0.596-1.531-0.538-3.302 0.175-5.313 0.711-2.005 3.4-6.682 8.068-14.031 4.666-7.343 7.391-12.12 8.174-14.33 0.781-2.203 0.31-3.61-1.412-4.221v0c-2.382-0.845-5.387-0.717-9.015 0.383v0c-1.152 2.273-3.531 6.116-7.137 11.529-3.61 5.403-6.174 9.44-7.691 12.11-1.517 2.671-2.548 4.778-3.095 6.322-0.547 1.544-0.862 2.503-0.945 2.877v0c-2.036 0.273-5.264-0.374-9.683-1.941v0l-1.258-0.447c1.317-3.715 4.595-9.665 9.833-17.85v0c5.345-8.343 8.433-13.686 9.264-16.03 0.829-2.338 0.427-3.796-1.206-4.376v0c-2.382-0.845-5.572-0.685-9.568 0.479v0c-1.347 2.255-3.656 5.888-6.926 10.901v0c-7.405 11.491-11.602 18.629-12.59 21.415v0c-2.036 0.273-5.242-0.366-9.616-1.917v0l-1.258-0.446c0.886-1.928 4.129-7.354 9.729-16.276 5.603-8.929 9.524-15.707 11.764-20.335v0c0.25-0.705 0.317-1.636 0.201-2.795-0.107-1.163-0.295-2.138-0.563-2.925v0l-0.333-1.167 0.553-0.918c2.738 0.127 7.133 1.264 13.185 3.41v0c0.195 1.259 0.003 2.705-0.576 4.338v0c-0.125 0.352-0.541 1.25-1.247 2.694v0c6.691-2.746 12.045-3.408 16.061-1.983v0c1.813 0.643 3.118 1.801 3.915 3.475 0.798 1.674 1.021 3.567 0.669 5.677v0c6.839-2.593 12.093-3.239 15.763-1.938v0c2.293 0.813 3.881 2.22 4.765 4.221 0.882 2.007 0.846 4.355-0.108 7.045-0.956 2.696-3.719 7.499-8.288 14.408-4.561 6.905-7.374 11.859-8.439 14.863v0c-0.454 1.281-0.46 2-0.019 2.156v0c0.397 0.141 1.636 0.083 3.718-0.174v0l1.071-0.064 0.457 2.92c-2.481 0.959-4.855 1.584-7.122 1.877-2.267 0.292-4.226 0.145-5.878-0.441zM222.607 23.401l0.187-0.313c-0.077 0.074-0.139 0.178-0.187 0.313zM334.342 130.308v0c-0.459-1.178-0.786-2.082-0.981-2.713v0c-8.936 1.325-15.042 2.499-18.32 3.521v0c-1.649-1.516-3.222-4.196-4.721-8.038v0c-0.323-0.829-0.523-1.408-0.6-1.736v0c2.698-0.694 9.682-1.908 20.954-3.64 11.274-1.726 18.265-3.118 20.975-4.174v0c0.519-0.202 1.091-0.765 1.717-1.687 0.619-0.92 1.093-1.797 1.423-2.634v0l0.522-1.187 1.056-0.182c3.95 6.913 6.81 12.639 8.579 17.178v0c3.505 8.99 1.592 14.914-5.739 17.773v0c-4.894 1.908-9.639 1.898-14.234-0.029-4.602-1.925-8.145-6.076-10.631-12.452zM338.067 126.898l0.255 0.655c1.311 3.362 3.568 5.41 6.772 6.145 3.204 0.735 6.924 0.276 11.159-1.376v0c1.747-0.681 3.051-1.565 3.911-2.651 0.86-1.087 1.043-2.263 0.55-3.529v0c-0.323-0.829-0.876-1.799-1.66-2.909v0c-4.862 1.093-11.857 2.315-20.987 3.665zM15.279 254.581v0c-1.135-3.022-1.359-6.237-0.672-9.645v0c0.34-1.703 1.124-3.289 2.35-4.759 1.22-1.467 2.842-2.581 4.865-3.34v0c3.842-1.443 7.45-1.346 10.823 0.29 3.367 1.639 5.917 4.176 7.649 7.612v0c-0.259-2.661 0.139-5.013 1.193-7.057 1.054-2.044 2.812-3.528 5.275-4.453v0c3.709-1.393 7.197-1.044 10.464 1.046 3.276 2.094 5.619 5.018 7.029 8.771 1.41 3.753 1.786 7.18 1.128 10.279-0.655 3.106-2.341 5.169-5.058 6.19v0c-0.954 0.358-1.944 0.545-2.969 0.56-1.025 0.015-1.796-0.077-2.313-0.275v0l-0.821-0.214c-0.518-1.38-0.854-2.989-1.007-4.826-0.146-1.84 0-3.285 0.44-4.336v0l6.96-1.732c0.401-0.884 0.314-2.092-0.261-3.625-0.576-1.533-1.815-2.447-3.719-2.741-1.91-0.292-3.876-0.058-5.899 0.702-2.029 0.762-3.473 1.577-4.331 2.443-0.86 0.86-1.408 1.828-1.642 2.903v0c-0.357 1.658-0.37 3.46-0.039 5.405v0l-3.753 0.821c-1.166-3.104-3.095-5.458-5.787-7.059-2.69-1.596-5.546-1.826-8.567-0.692v0c-1.896 0.712-3.227 1.912-3.994 3.602-0.773 1.691-0.795 3.507-0.066 5.447v0c1.331 3.543 4.483 6.497 9.458 8.86v0l-1.424 3.486c-7.828-2.773-12.932-7.327-15.312-13.663zM118.683 343.64v0c-2.047 3.922-5.159 6.249-9.336 6.981-4.174 0.726-8.384-0.019-12.631-2.236v0c-2.861-1.494-4.842-3.448-5.943-5.862-1.103-2.423-1.49-4.201-1.161-5.331v0c1.153-1.107 2.902-2.115 5.246-3.022 2.344-0.907 4.205-1.235 5.584-0.983v0c1.383 2.431 1.757 6.444 1.121 12.037v0c2.697 1.309 4.782 0.553 6.254-2.266v0c0.811-1.554 1.185-3.789 1.12-6.705-0.061-2.922-0.311-5.754-0.75-8.498-0.435-2.749-0.63-5.687-0.584-8.813 0.042-3.121 0.565-5.642 1.568-7.564v0c1.62-3.102 4.154-4.895 7.603-5.379 3.458-0.487 6.76 0.091 9.904 1.732 3.144 1.642 5.232 3.59 6.262 5.845 1.03 2.255 1.098 4.241 0.201 5.958-0.896 1.717-2.466 3.132-4.71 4.244-2.244 1.113-4.298 1.861-6.162 2.245v0l-2.791 0.567c0.154 0.908 0.311 2.055 0.468 3.441 0.161 1.38 0.195 3.605 0.102 6.676-0.099 3.068-0.554 5.379-1.365 6.933zM124.493 321.101c0.825-0.244 1.661-0.627 2.509-1.15 0.839-0.52 1.477-1.199 1.914-2.037 0.437-0.837 0.317-1.797-0.36-2.878-0.683-1.085-1.708-1.984-3.076-2.698-1.367-0.714-2.677-0.995-3.929-0.844-1.252 0.151-2.107 0.667-2.566 1.546-0.459 0.879-0.694 2.056-0.705 3.531-0.017 1.471 0.058 2.744 0.225 3.819v0l0.314 1.647c0.517 0.009 1.383-0.087 2.599-0.287 1.219-0.191 2.244-0.408 3.075-0.649zM261.604 349.378c-1.632 0.582-3.152 0.478-4.559-0.312-1.409-0.796-2.466-2.183-3.171-4.161-0.703-1.971-1.552-7.209-2.549-15.713-1.001-8.495-1.888-13.827-2.661-15.997-0.773-2.17-2.005-2.954-3.695-2.352v0c-2.349 0.837-4.561 2.798-6.636 5.882v0c0.53 2.459 1.099 6.869 1.708 13.232 0.602 6.365 1.152 11.034 1.649 14.009 0.5 2.982 1.02 5.231 1.561 6.748 0.541 1.517 0.896 2.444 1.067 2.78v0c-1.388 1.469-4.252 2.976-8.592 4.523v0l-1.239 0.442c-1.298-3.642-2.489-10.212-3.572-19.709v0c-1.101-9.686-2.061-15.681-2.883-17.985-0.819-2.298-2.032-3.161-3.639-2.588v0c-2.343 0.835-4.676 2.94-7.001 6.315v0c0.377 2.556 0.871 6.756 1.482 12.598v0c1.488 13.364 2.72 21.416 3.697 24.155v0c-1.382 1.466-4.223 2.966-8.525 4.499v0l-1.238 0.442c-0.523-2.014-1.416-8.163-2.68-18.447-1.272-10.288-2.492-17.89-3.659-22.805v0c-0.249-0.698-0.774-1.452-1.575-2.263-0.804-0.817-1.554-1.445-2.25-1.882v0l-0.969-0.682-0.153-1.039c2.168-1.609 6.225-3.474 12.171-5.593v0c0.935 0.843 1.689 2.067 2.261 3.674v0c0.123 0.346 0.362 1.289 0.716 2.829v0c3.398-6.254 7.072-10.084 11.021-11.493v0c1.779-0.634 3.494-0.56 5.144 0.223 1.643 0.785 2.989 2.091 4.037 3.918v0c3.603-6.226 7.203-9.98 10.8-11.262v0c2.26-0.805 4.347-0.716 6.263 0.267 1.914 0.977 3.343 2.791 4.287 5.441 0.945 2.65 1.822 8.026 2.632 16.127 0.81 8.101 1.741 13.627 2.792 16.578v0c0.449 1.261 0.892 1.814 1.327 1.658v0c0.39-0.139 1.298-0.953 2.722-2.442v0l0.772-0.718 2.155 1.948c-1.29 2.271-2.709 4.219-4.257 5.846-1.548 1.627-3.135 2.73-4.761 3.309zM215.695 336.611l-0.049-0.351c-0.013 0.106 0.004 0.222 0.049 0.351zM327.797 247.841v0c-0.452 1.166-0.815 2.038-1.091 2.616v0c7.361 4.981 12.568 8.187 15.621 9.619v0c0.183 2.199-0.458 5.186-1.921 8.962v0c-0.317 0.817-0.556 1.369-0.719 1.657v0c-2.417-1.286-8.284-5.044-17.604-11.273-9.323-6.237-15.315-9.871-17.976-10.902v0c-0.52-0.201-1.31-0.173-2.373 0.086-1.06 0.252-1.985 0.572-2.776 0.957v0l-1.164 0.522-0.892-0.576c1.72-7.634 3.446-13.685 5.177-18.151v0c3.431-8.851 8.758-11.877 15.98-9.078v0c4.809 1.864 8.241 5.023 10.297 9.479 2.058 4.449 1.872 9.81-0.559 16.082zM322.82 247.847l0.251-0.646c1.282-3.307 1.007-6.293-0.825-8.956-1.832-2.663-4.832-4.803-9.002-6.419v0c-1.717-0.666-3.249-0.888-4.595-0.666-1.347 0.221-2.261 0.953-2.742 2.195v0c-0.317 0.817-0.56 1.886-0.729 3.205v0c4.246 2.433 10.127 6.195 17.642 11.287zM0.461 190.508c0-10.528 8.535-19.064 19.064-19.064 10.528 0 19.064 8.535 19.063 19.064 0 10.528-8.535 19.064-19.063 19.063-10.528 0-19.064-8.535-19.064-19.063zM323.454 190.508c0-10.528 8.535-19.064 19.064-19.064 10.528 0 19.064 8.535 19.063 19.064 0 10.528-8.535 19.064-19.063 19.063-10.528 0-19.064-8.535-19.064-19.063z" fill="#77d4fc" data-fill-palette-color="accent"></path></svg></g></svg></g></svg></g><defs></defs></svg><rect width="395.5199999999999" height="174.74932238328003" fill="none" stroke="none" visibility="hidden"></rect></g></svg></g></svg>